<svg viewBox="0 -0.5 256 256" fill="none" width="40" height="40">
  <!-- Define gradients -->
  <defs>
    <linearGradient id="python-gradient-1" x1="12.959%" y1="12.039%" x2="79.639%" y2="78.201%">
      <stop offset="0%" stop-color="#387EB8"/>
      <stop offset="100%" stop-color="#366994"/>
    </linearGradient>
    <linearGradient id="python-gradient-2" x1="19.128%" y1="20.579%" x2="90.742%" y2="88.429%">
      <stop offset="0%" stop-color="#FFE052"/>
      <stop offset="100%" stop-color="#FFC331"/>
    </linearGradient>
  </defs>
  
  <!-- Python paths -->
  <path d="M126.916 0.072C62.084 0.072 66.132 28.187 66.132 28.187L66.204 57.314 128.072 57.314 128.072 66.059 41.631 66.059C41.631 66.059 0.145 61.354 0.145 126.771S36.355 189.868 36.355 189.868L57.965 189.868 57.965 159.512C57.965 159.512 56.8 123.302 93.597 123.302L154.959 123.302C154.959 123.302 189.434 123.859 189.434 89.983L189.434 33.969C189.434 33.969 194.669 0.072 126.916 0.072Z" fill="url(#python-gradient-1)"/>
  <path d="M128.757 254.126C193.589 254.126 189.541 226.011 189.541 226.011L189.469 196.884 127.601 196.884 127.601 188.139 214.042 188.139C214.042 188.139 255.528 192.844 255.528 127.427S219.318 64.331 219.318 64.331L197.708 64.331 197.708 94.686C197.708 94.686 198.873 130.896 162.076 130.896L100.714 130.896C100.714 130.896 66.239 130.339 66.239 164.215L66.239 220.229C66.239 220.229 61.004 254.126 128.757 254.126Z" fill="url(#python-gradient-2)"/>
  <path d="M92.802 19.659C98.957 19.659 103.932 24.634 103.932 30.789 103.932 36.945 98.957 41.92 92.802 41.92 86.646 41.92 81.671 36.945 81.671 30.789 81.671 24.634 86.646 19.659 92.802 19.659Z" fill="url(#python-gradient-1)"/>
  <path d="M162.871 234.54C156.716 234.54 151.741 229.565 151.741 223.41 151.741 217.254 156.716 212.279 162.871 212.279 169.027 212.279 174.002 217.254 174.002 223.41 174.002 229.565 169.027 234.54 162.871 234.54Z" fill="url(#python-gradient-2)"/>
</svg>
